<svg width="680" viewBox="0 0 680 980" xmlns="http://www.w3.org/2000/svg" style="font-family: sans-serif; background: white;">
<defs>
<marker id="arrow" viewBox="0 0 10 10" refX="8" refY="5" markerWidth="6" markerHeight="6" orient="auto-start-reverse"><path d="M2 1L8 5L2 9" fill="none" stroke="context-stroke" stroke-width="1.5" stroke-linecap="round" stroke-linejoin="round"/></marker>
</defs>

<!-- Title -->
<text font-size="14" font-weight="500" x="340" y="28" text-anchor="middle" fill="#2c2c2a">HamSCI Grape TID detection — analysis pipeline</text>
<text font-size="12" x="340" y="46" text-anchor="middle" fill="#5f5e5a">v1.6.7 · N6RFM &amp; G3ZIL · analyze_event.sh automates the full workflow</text>

<!-- Row 1: Data source -->
<rect x="200" y="62" width="280" height="44" rx="8" fill="#FAEEDA" stroke="#854F0B" stroke-width="0.5"/>
<text font-size="14" font-weight="500" x="340" y="88" text-anchor="middle" fill="#412402">PSWS network</text>
<text font-size="12" x="340" y="102" text-anchor="middle" fill="#633806">pswsnetwork.eng.ua.edu</text>

<line x1="340" y1="106" x2="340" y2="128" stroke="#444" stroke-width="1" marker-end="url(#arrow)"/>

<!-- Row 2: find_event_stations -->
<rect x="160" y="130" width="360" height="44" rx="8" fill="#E6F1FB" stroke="#185FA5" stroke-width="0.5"/>
<text font-size="14" font-weight="500" x="340" y="156" text-anchor="middle" fill="#042C53">find_event_stations.py</text>
<text font-size="12" x="340" y="169" text-anchor="middle" fill="#0C447C">rank companions by midpoint geometry</text>

<line x1="340" y1="174" x2="340" y2="196" stroke="#444" stroke-width="1" marker-end="url(#arrow)"/>

<!-- Row 3: DRF files -->
<rect x="160" y="198" width="360" height="44" rx="8" fill="#FAEEDA" stroke="#854F0B" stroke-width="0.5"/>
<text font-size="14" font-weight="500" x="340" y="224" text-anchor="middle" fill="#412402">DRF I/Q files downloaded</text>
<text font-size="12" x="340" y="237" text-anchor="middle" fill="#633806">10 sps complex baseband · one folder per station</text>

<line x1="340" y1="242" x2="340" y2="264" stroke="#444" stroke-width="1" marker-end="url(#arrow)"/>

<!-- Row 4: drf_inspect -->
<rect x="160" y="266" width="360" height="44" rx="8" fill="#E6F1FB" stroke="#185FA5" stroke-width="0.5"/>
<text font-size="14" font-weight="500" x="340" y="292" text-anchor="middle" fill="#042C53">drf_inspect.py</text>
<text font-size="12" x="340" y="305" text-anchor="middle" fill="#0C447C">verify metadata · identify 10 MHz subchannel</text>

<line x1="340" y1="310" x2="340" y2="332" stroke="#444" stroke-width="1" marker-end="url(#arrow)"/>

<!-- Row 5: drf_spectrogram visual scan -->
<rect x="100" y="334" width="480" height="56" rx="8" fill="#E1F5EE" stroke="#0F6E56" stroke-width="0.5"/>
<text font-size="14" font-weight="500" x="340" y="358" text-anchor="middle" fill="#04342C">drf_spectrogram.py — visual scan</text>
<text font-size="12" x="340" y="374" text-anchor="middle" fill="#085041">identify TID window · confirm carrier · check for E-region contamination</text>

<line x1="340" y1="390" x2="340" y2="412" stroke="#444" stroke-width="1" marker-end="url(#arrow)"/>

<!-- Row 6: drf_to_doppler -->
<rect x="60" y="414" width="560" height="56" rx="8" fill="#E6F1FB" stroke="#185FA5" stroke-width="0.5"/>
<text font-size="14" font-weight="500" x="340" y="438" text-anchor="middle" fill="#042C53">drf_to_doppler.py --method fft | autocorr</text>
<text font-size="12" x="340" y="454" text-anchor="middle" fill="#0C447C">extract both methods · 60s or 10s cadence · multi-subchannel aware</text>

<line x1="340" y1="470" x2="340" y2="492" stroke="#444" stroke-width="1" marker-end="url(#arrow)"/>

<!-- Row 7: Overlay comparison -->
<rect x="60" y="494" width="480" height="56" rx="8" fill="#E1F5EE" stroke="#0F6E56" stroke-width="0.5"/>
<text font-size="14" font-weight="500" x="300" y="518" text-anchor="middle" fill="#04342C">drf_spectrogram.py --overlay — method validation</text>
<text font-size="12" x="300" y="534" text-anchor="middle" fill="#085041">compare FFT vs autocorr · inter-method r and RMS diff · choose per station</text>

<!-- station_methods.txt annotation -->
<line x1="540" y1="522" x2="558" y2="522" stroke="#888" stroke-width="0.5" stroke-dasharray="3 2"/>
<text font-size="11" x="562" y="518" fill="#5f5e5a">station_methods.txt</text>
<text font-size="11" x="562" y="530" fill="#5f5e5a">records choices</text>

<line x1="340" y1="550" x2="340" y2="572" stroke="#444" stroke-width="1" marker-end="url(#arrow)"/>

<!-- Row 8: CSV data products -->
<rect x="60" y="574" width="170" height="44" rx="8" fill="#FAEEDA" stroke="#854F0B" stroke-width="0.5"/>
<text font-size="14" font-weight="500" x="145" y="600" text-anchor="middle" fill="#412402">station1.csv</text>
<text font-size="12" x="145" y="613" text-anchor="middle" fill="#633806">FFT or autocorr</text>

<rect x="255" y="574" width="170" height="44" rx="8" fill="#FAEEDA" stroke="#854F0B" stroke-width="0.5"/>
<text font-size="14" font-weight="500" x="340" y="600" text-anchor="middle" fill="#412402">station2.csv</text>
<text font-size="12" x="340" y="613" text-anchor="middle" fill="#633806">FFT or autocorr</text>

<rect x="450" y="574" width="170" height="44" rx="8" fill="#FAEEDA" stroke="#854F0B" stroke-width="0.5"/>
<text font-size="14" font-weight="500" x="535" y="600" text-anchor="middle" fill="#412402">stationN.csv</text>
<text font-size="12" x="535" y="613" text-anchor="middle" fill="#633806">FFT or autocorr</text>

<line x1="145" y1="618" x2="220" y2="650" stroke="#444" stroke-width="1" marker-end="url(#arrow)"/>
<line x1="340" y1="618" x2="340" y2="650" stroke="#444" stroke-width="1" marker-end="url(#arrow)"/>
<line x1="535" y1="618" x2="460" y2="650" stroke="#444" stroke-width="1" marker-end="url(#arrow)"/>

<!-- Row 9: quality_summary -->
<rect x="160" y="652" width="360" height="44" rx="8" fill="#E6F1FB" stroke="#185FA5" stroke-width="0.5"/>
<text font-size="14" font-weight="500" x="340" y="678" text-anchor="middle" fill="#042C53">quality_summary.py</text>
<text font-size="12" x="340" y="691" text-anchor="middle" fill="#0C447C">SNR · jitter · excursions · end-fade scoring</text>

<line x1="340" y1="696" x2="340" y2="718" stroke="#444" stroke-width="1" marker-end="url(#arrow)"/>

<!-- Row 10: tid_doa -->
<rect x="100" y="720" width="480" height="56" rx="8" fill="#E6F1FB" stroke="#185FA5" stroke-width="0.5"/>
<text font-size="14" font-weight="500" x="340" y="744" text-anchor="middle" fill="#042C53">tid_doa.py event.json</text>
<text font-size="12" x="340" y="760" text-anchor="middle" fill="#0C447C">"method" field per station · run log · 5 diagnostics</text>

<line x1="340" y1="776" x2="340" y2="798" stroke="#444" stroke-width="1" marker-end="url(#arrow)"/>

<!-- Row 11: Outputs -->
<rect x="60" y="800" width="170" height="44" rx="8" fill="#EAF3DE" stroke="#3B6D11" stroke-width="0.5"/>
<text font-size="14" font-weight="500" x="145" y="826" text-anchor="middle" fill="#173404">azimuth · speed</text>
<text font-size="12" x="145" y="839" text-anchor="middle" fill="#27500A">pairwise lags</text>

<rect x="255" y="800" width="170" height="44" rx="8" fill="#EAF3DE" stroke="#3B6D11" stroke-width="0.5"/>
<text font-size="14" font-weight="500" x="340" y="826" text-anchor="middle" fill="#173404">spectrogram</text>
<text font-size="12" x="340" y="839" text-anchor="middle" fill="#27500A">annotated figure</text>

<rect x="450" y="800" width="170" height="44" rx="8" fill="#EAF3DE" stroke="#3B6D11" stroke-width="0.5"/>
<text font-size="14" font-weight="500" x="535" y="826" text-anchor="middle" fill="#173404">array map</text>
<text font-size="12" x="535" y="839" text-anchor="middle" fill="#27500A">wave direction arrow</text>

<!-- Legend -->
<rect x="60" y="870" width="14" height="12" rx="2" fill="#E6F1FB" stroke="#185FA5" stroke-width="0.5"/>
<text font-size="11" x="80" y="881" fill="#5f5e5a">Script</text>
<rect x="140" y="870" width="14" height="12" rx="2" fill="#FAEEDA" stroke="#854F0B" stroke-width="0.5"/>
<text font-size="11" x="160" y="881" fill="#5f5e5a">Data product</text>
<rect x="260" y="870" width="14" height="12" rx="2" fill="#EAF3DE" stroke="#3B6D11" stroke-width="0.5"/>
<text font-size="11" x="280" y="881" fill="#5f5e5a">Output</text>
<rect x="360" y="870" width="14" height="12" rx="2" fill="#E1F5EE" stroke="#0F6E56" stroke-width="0.5"/>
<text font-size="11" x="380" y="881" fill="#5f5e5a">Visual inspection step</text>

<!-- analyze_event.sh wrapper -->
<rect x="60" y="900" width="560" height="24" rx="4" fill="none" stroke="#888" stroke-width="0.5" stroke-dasharray="4 3"/>
<text font-size="11" x="340" y="916" text-anchor="middle" fill="#5f5e5a">analyze_event.sh automates stages 1–11 with interactive pauses and per-station method selection</text>

<!-- tid_pair optional side branch -->
<line x1="60" y1="596" x2="34" y2="596" stroke="#888" stroke-width="0.8"/>
<line x1="34" y1="596" x2="34" y2="740" stroke="#888" stroke-width="0.8"/>
<line x1="34" y1="740" x2="98" y2="740" stroke="#888" stroke-width="0.8" marker-end="url(#arrow)"/>
<text font-size="10" x="22" y="680" text-anchor="middle" fill="#888" transform="rotate(-90,22,680)">tid_pair.py (optional)</text>
</svg>
